<svg width="81" height="81" viewBox="0 0 81 81" fill="none" xmlns="http://www.w3.org/2000/svg">
<path d="M74.4967 80.1829C76.6547 79.3195 78.1123 76.5416 77.5519 74.3498C77.2818 73.289 47.6966 44.7643 45.3618 43.318C43.037 41.8717 40.1852 42.1839 38.1773 44.0985C36.9465 45.2772 36.6163 47.7748 37.4835 49.3422C38.0105 50.2947 68.7998 79.6891 69.8605 80.253C70.791 80.7467 73.1725 80.7117 74.4967 80.1829ZM47.587 75.4745C52.6835 74.4838 54.478 73.544 54.478 71.8588C54.478 71.1356 50.2587 66.9878 48.5509 66.0321C47.0967 65.2198 47.0533 65.2134 43.8613 65.583C31.5403 67.0038 19.4494 60.7375 14.3095 50.2725C9.20962 39.8903 10.9674 27.8229 18.7623 19.6771C23.0116 15.2363 29.1354 12.127 35.5862 11.1331C39.4819 10.531 45.3556 10.891 48.7778 11.9359C51.6896 12.8279 55.7922 14.752 57.8134 16.176C59.7213 17.5236 63.2769 21.0916 64.5877 22.9807C67.6829 27.4343 69.1472 32.2224 69.1505 37.9057C69.1539 43.3851 68.1065 47.3385 65.5049 51.6487C63.4736 55.0096 63.5704 55.5544 66.7457 58.6382C69.0104 60.8427 69.4907 61.1612 70.5147 61.1612C71.4353 61.1612 71.9423 60.9064 72.8729 59.9666C75.6679 57.1568 78.2563 52.219 79.7238 46.8925C80.481 44.1624 80.581 43.1461 80.6011 38.2242C80.6244 32.4613 80.3576 30.6041 78.8733 26.2779C76.2583 18.6481 71.0617 11.9709 63.984 7.15735C60.5818 4.84135 57.62 3.42053 53.364 2.06343C36.5201 -3.32039 18.2186 2.06343 7.6553 15.5039C4.25984 19.8237 2.11849 24.3474 0.590868 30.4193C-0.186285 33.5062 -0.199627 42.2318 0.56752 45.5067C1.33133 48.7625 2.66551 52.3974 3.85625 54.4713C4.41326 55.4333 5.16707 56.7968 5.53397 57.4977C7.30508 60.8777 12.8919 66.6279 17.0012 69.307C21.474 72.2188 27.9013 74.7641 32.9645 75.6243C37.0904 76.3251 43.5545 76.2582 47.587 75.4745Z" fill="url(#paint0_linear_57_18)"/>
<path fill-rule="evenodd" clip-rule="evenodd" d="M54.478 71.8588C54.478 73.544 52.6835 74.4838 47.587 75.4745C43.5545 76.2582 37.0904 76.3251 32.9645 75.6243C27.9013 74.7641 21.474 72.2188 17.0012 69.307C12.8919 66.6279 7.30508 60.8777 5.53397 57.4977C5.16707 56.7968 4.41326 55.4333 3.85625 54.4713C2.66551 52.3974 1.33133 48.7625 0.56752 45.5067C-0.199627 42.2318 -0.186285 33.5062 0.590868 30.4193C2.11849 24.3474 4.25984 19.8237 7.6553 15.5039C18.2186 2.06343 36.5201 -3.32039 53.364 2.06343C57.62 3.42053 60.5818 4.84135 63.984 7.15735C71.0617 11.9709 76.2583 18.6481 78.8733 26.2779C80.3576 30.6041 80.6244 32.4613 80.6011 38.2242C80.581 43.1461 80.481 44.1624 79.7238 46.8925C78.2563 52.219 75.6679 57.1568 72.8729 59.9666C71.9423 60.9064 71.4353 61.1612 70.5147 61.1612C69.4907 61.1612 69.0104 60.8427 66.7457 58.6382C63.5704 55.5544 63.4736 55.0096 65.5049 51.6487C68.1065 47.3385 69.1539 43.3851 69.1505 37.9057C69.1472 32.2224 67.6829 27.4343 64.5877 22.9807C63.2769 21.0916 59.7213 17.5236 57.8134 16.176C55.7922 14.752 51.6896 12.8279 48.7778 11.9359C45.3556 10.891 39.4819 10.531 35.5862 11.1331C29.1354 12.127 23.0116 15.2363 18.7623 19.6771C10.9674 27.8229 9.20962 39.8903 14.3095 50.2725C19.4494 60.7375 31.5403 67.0038 43.8613 65.583C47.0533 65.2134 47.0967 65.2198 48.5509 66.0321C50.2587 66.9878 54.478 71.1356 54.478 71.8588Z" fill="url(#paint1_linear_57_18)"/>
<path fill-rule="evenodd" clip-rule="evenodd" d="M77.5519 74.3498C78.1123 76.5416 76.6547 79.3195 74.4967 80.1829C73.1725 80.7117 70.791 80.7467 69.8605 80.253C68.7998 79.6891 38.0105 50.2947 37.4835 49.3422C36.6163 47.7748 36.9465 45.2772 38.1773 44.0985C40.1852 42.1839 43.037 41.8717 45.3618 43.318C47.6966 44.7643 77.2818 73.289 77.5519 74.3498Z" fill="url(#paint2_linear_57_18)"/>
<defs>
<linearGradient id="paint0_linear_57_18" x1="46.9233" y1="4.1178" x2="124.695" y2="90.1339" gradientUnits="userSpaceOnUse">
<stop offset="0.903846" stop-color="#E95E4D"/>
</linearGradient>
<linearGradient id="paint1_linear_57_18" x1="0" y1="0" x2="73.2071" y2="83.9478" gradientUnits="userSpaceOnUse">
<stop offset="0.192308" stop-color="#42A7FF"/>
<stop offset="0.379808" stop-color="#5133F9"/>
<stop offset="0.701923" stop-color="#CC2EAD"/>
<stop offset="0.802885" stop-color="#CC5C6C"/>
<stop offset="0.899038" stop-color="#E95E4D"/>
</linearGradient>
<linearGradient id="paint2_linear_57_18" x1="46.9233" y1="4.1178" x2="124.695" y2="90.1339" gradientUnits="userSpaceOnUse">
<stop stop-color="#000DFF"/>
<stop offset="0.105769" stop-color="#215EFF"/>
<stop offset="0.341346" stop-color="#CC2EAD"/>
<stop offset="0.4375" stop-color="#CC5C6C"/>
<stop offset="0.538462" stop-color="#F5533F"/>
</linearGradient>
</defs>
</svg>
