<svg width="2407" height="870" viewBox="0 0 2407 870" fill="none" xmlns="http://www.w3.org/2000/svg">
<path d="M803.952 865.317C827.241 856 842.971 826.021 836.924 802.368C834.008 790.92 514.731 483.087 489.534 467.479C464.446 451.871 433.67 455.24 412.001 475.902C398.719 488.622 395.155 515.576 404.514 532.49C410.201 542.77 742.472 859.988 753.919 866.073C763.961 871.402 789.662 871.024 803.952 865.317ZM513.549 814.506C568.549 803.814 587.915 793.672 587.915 775.485C587.915 767.681 542.381 722.919 523.951 712.605C508.257 703.838 507.789 703.77 473.342 707.758C340.376 723.091 209.893 655.467 154.425 542.531C99.3883 430.488 118.358 300.259 202.478 212.351C248.336 164.427 314.423 130.872 384.038 120.146C426.08 113.648 489.468 117.533 526.399 128.81C557.823 138.436 602.097 159.201 623.91 174.569C644.499 189.111 682.87 227.616 697.016 248.003C730.42 296.065 746.221 347.737 746.257 409.07C746.293 468.203 734.991 510.867 706.915 557.382C684.994 593.653 686.038 599.532 720.305 632.811C744.746 656.601 749.929 660.039 760.979 660.039C770.914 660.039 776.385 657.289 786.428 647.147C816.592 616.824 844.524 563.536 860.362 506.054C868.533 476.591 869.613 465.624 869.829 412.508C870.081 350.316 867.201 330.273 851.183 283.585C822.963 201.247 766.883 129.188 690.501 77.2407C653.786 52.2469 621.822 36.9137 575.892 22.2681C394.117 -35.833 196.611 22.2681 82.6144 167.315C45.9714 213.933 22.8624 262.752 6.37664 328.279C-2.01022 361.592 -2.1542 455.757 6.12467 491.099C14.3676 526.235 28.7657 565.462 41.6159 587.843C47.6271 598.225 55.762 612.939 59.7215 620.503C78.8349 656.979 139.127 719.034 183.473 747.947C231.742 779.37 301.105 806.839 355.746 816.121C400.272 823.685 470.031 822.963 513.549 814.506Z" fill="url(#paint0_linear_69_140)"/>
<path fill-rule="evenodd" clip-rule="evenodd" d="M587.915 775.485C587.915 793.672 568.549 803.814 513.549 814.506C470.031 822.963 400.272 823.685 355.746 816.121C301.105 806.839 231.742 779.37 183.473 747.947C139.127 719.034 78.8349 656.979 59.7215 620.503C55.762 612.939 47.6271 598.225 41.6159 587.843C28.7657 565.462 14.3676 526.235 6.12467 491.099C-2.1542 455.757 -2.01022 361.592 6.37664 328.279C22.8624 262.752 45.9714 213.933 82.6144 167.315C196.611 22.2681 394.117 -35.833 575.892 22.2681C621.822 36.9137 653.786 52.2469 690.501 77.2407C766.883 129.188 822.963 201.247 851.183 283.585C867.201 330.273 870.081 350.316 869.829 412.508C869.613 465.624 868.533 476.591 860.362 506.054C844.524 563.536 816.592 616.824 786.428 647.147C776.385 657.289 770.914 660.039 760.979 660.039C749.929 660.039 744.746 656.601 720.305 632.811C686.038 599.532 684.994 593.653 706.915 557.382C734.991 510.867 746.293 468.203 746.257 409.07C746.221 347.737 730.42 296.065 697.016 248.003C682.87 227.616 644.499 189.111 623.91 174.569C602.097 159.201 557.823 138.436 526.399 128.81C489.468 117.533 426.08 113.648 384.038 120.146C314.423 130.872 248.336 164.427 202.478 212.351C118.358 300.259 99.3883 430.488 154.425 542.531C209.893 655.467 340.376 723.091 473.342 707.758C507.789 703.77 508.257 703.838 523.951 712.605C542.381 722.919 587.915 767.681 587.915 775.485Z" fill="url(#paint1_linear_69_140)"/>
<path fill-rule="evenodd" clip-rule="evenodd" d="M836.924 802.368C842.971 826.021 827.241 856 803.952 865.317C789.662 871.024 763.961 871.402 753.919 866.073C742.472 859.988 410.201 542.77 404.514 532.49C395.155 515.576 398.719 488.622 412.001 475.902C433.67 455.24 464.446 451.871 489.534 467.479C514.731 483.087 834.008 790.92 836.924 802.368Z" fill="url(#paint2_linear_69_140)"/>
<path fill-rule="evenodd" clip-rule="evenodd" d="M1149.03 810.905C1203.69 820.864 1267.55 811.284 1319.5 785.323C1350.64 769.752 1369.02 756.178 1392.93 731.152C1435.86 686.208 1460.41 630.798 1467.89 561.84C1471.35 529.711 1468.72 501.349 1458.36 459.766C1436.34 371.242 1365.43 291.945 1283.32 264.063C1153.86 220.079 1015.86 277.587 957.92 399.655C946.493 423.72 940.83 439.595 933.702 467.325C928.747 486.662 927.862 496.521 927.837 533.048C927.786 573.619 930.365 597.507 937.266 620.257C952.51 670.485 972.076 704.181 1004.84 736.537C1046.3 777.487 1090.33 800.212 1149.03 810.905ZM1164.68 710.121C1182.88 714.519 1202.93 714.494 1226.19 710.045C1271.03 701.476 1311.63 670.409 1331.05 629.838C1355.47 578.725 1359.49 526.147 1343.49 466.592C1328.22 409.691 1286.96 367.198 1233.77 353.624C1216.05 349.099 1185.06 348.619 1166.17 352.587C1126.89 360.853 1087.5 391.111 1068.47 427.714C1049 465.1 1044.05 487.092 1044.15 535.576C1044.2 567.097 1045.16 576.804 1049.86 593.184C1067.15 653.65 1109.52 696.774 1164.68 710.121Z" fill="url(#paint3_linear_69_140)"/>
<path d="M1544.36 783.579C1545.47 786.41 1555.84 787.093 1598.74 787.093C1650.66 787.093 1651.85 786.966 1655.69 781.481C1659.15 776.527 1659.63 756.001 1659.66 610.222C1659.69 438.053 1660.04 431.632 1670.45 411.511C1675.84 401.096 1692.12 386.713 1706.93 379.256C1730.82 367.249 1761.21 361.258 1812.58 358.452C1833.46 357.314 1843.9 357.365 1849.13 352.183C1854.39 346.95 1854.36 336.435 1854.29 314.038V306.328C1854.29 269.523 1853.66 262.269 1850.12 258.35C1846.38 254.23 1841.45 253.724 1803.98 253.775C1731.71 253.851 1684.54 264.114 1634.36 290.732C1595.15 311.51 1573.71 331.455 1560.36 359.539C1545.04 391.794 1545.22 389.342 1544.06 593.361C1543.5 696.066 1543.63 781.658 1544.36 783.579Z" fill="url(#paint4_linear_69_140)"/>
<path fill-rule="evenodd" clip-rule="evenodd" d="M2112.8 812.27C2162.68 817.25 2215.13 807.644 2260 785.349C2334.88 748.114 2383.8 681.557 2402.18 591.895C2408.09 563.002 2408.02 502.512 2402.05 474.226C2373.43 338.811 2269.15 250.261 2138.69 250.539C2119.95 250.565 2100.61 252.233 2088.13 254.887C1978.21 278.295 1895.6 366.263 1875.6 481.228C1872.44 499.453 1871.73 514.671 1872.69 544.423C1874.26 592.527 1881.03 620.914 1900.75 661.966C1942.64 749.049 2018.56 802.866 2112.8 812.27ZM2143.74 710.121C2163.28 709.59 2176.43 707.795 2187.98 704.079C2210.76 696.749 2241.4 676.021 2255.25 658.554C2271.61 637.952 2283.69 611.284 2289.56 582.871C2293.73 562.699 2294.41 552.006 2293.4 522.936C2291.98 482.112 2288.34 466.162 2273.55 435.727C2253.96 395.434 2211.95 361.485 2170.79 352.663C2140.83 346.217 2104.86 351.02 2075.33 365.378C2048.79 378.245 2019.69 407.972 2006.42 435.727C1993.71 462.37 1988.35 484.868 1986.6 519.145C1981.98 609.716 2020.43 679.408 2088.13 703.22C2109.03 710.576 2112.17 710.98 2143.74 710.121Z" fill="url(#paint5_linear_69_140)"/>
<defs>
<linearGradient id="paint0_linear_69_140" x1="506.386" y1="44.4385" x2="1345.68" y2="972.705" gradientUnits="userSpaceOnUse">
<stop offset="0.903846" stop-color="#E95E4D"/>
</linearGradient>
<linearGradient id="paint1_linear_69_140" x1="0.00012207" y1="0" x2="790.037" y2="905.946" gradientUnits="userSpaceOnUse">
<stop offset="0.192308" stop-color="#42A7FF"/>
<stop offset="0.379808" stop-color="#5133F9"/>
<stop offset="0.701923" stop-color="#CC2EAD"/>
<stop offset="0.802885" stop-color="#CC5C6C"/>
<stop offset="0.899038" stop-color="#E95E4D"/>
</linearGradient>
<linearGradient id="paint2_linear_69_140" x1="506.386" y1="44.4385" x2="1345.68" y2="972.705" gradientUnits="userSpaceOnUse">
<stop stop-color="#000DFF"/>
<stop offset="0.105769" stop-color="#215EFF"/>
<stop offset="0.341346" stop-color="#CC2EAD"/>
<stop offset="0.4375" stop-color="#CC5C6C"/>
<stop offset="0.538462" stop-color="#F5533F"/>
</linearGradient>
<linearGradient id="paint3_linear_69_140" x1="928.367" y1="913.483" x2="2551.3" y2="1513.91" gradientUnits="userSpaceOnUse">
<stop offset="0.0760538" stop-color="#666EFF"/>
<stop offset="0.157411" stop-color="#CC2EAD"/>
<stop offset="0.361694" stop-color="#994ED6"/>
<stop offset="0.931391" stop-color="#F5533F"/>
</linearGradient>
<linearGradient id="paint4_linear_69_140" x1="928.367" y1="913.483" x2="2551.3" y2="1513.91" gradientUnits="userSpaceOnUse">
<stop offset="0.0760538" stop-color="#666EFF"/>
<stop offset="0.157411" stop-color="#CC2EAD"/>
<stop offset="0.361694" stop-color="#994ED6"/>
<stop offset="0.931391" stop-color="#F5533F"/>
</linearGradient>
<linearGradient id="paint5_linear_69_140" x1="928.367" y1="913.483" x2="2551.3" y2="1513.91" gradientUnits="userSpaceOnUse">
<stop offset="0.0760538" stop-color="#666EFF"/>
<stop offset="0.157411" stop-color="#CC2EAD"/>
<stop offset="0.361694" stop-color="#994ED6"/>
<stop offset="0.931391" stop-color="#F5533F"/>
</linearGradient>
</defs>
</svg>
